<?xml version="1.0" encoding="UTF-8"?>
<svg id="Layer_1" data-name="Layer 1" xmlns="http://www.w3.org/2000/svg" viewBox="0 0 100 60.61">
  <defs>
    <style>
      .cls-1 {
        fill: #a43326;
      }

      .cls-1, .cls-2, .cls-3, .cls-4, .cls-5, .cls-6, .cls-7, .cls-8, .cls-9, .cls-10, .cls-11, .cls-12, .cls-13, .cls-14, .cls-15, .cls-16, .cls-17, .cls-18, .cls-19, .cls-20, .cls-21, .cls-22, .cls-23, .cls-24, .cls-25, .cls-26, .cls-27, .cls-28, .cls-29, .cls-30 {
        stroke-width: 0px;
      }

      .cls-2 {
        fill: #5baea8;
      }

      .cls-3 {
        fill: #dc8d27;
      }

      .cls-4 {
        fill: #1d645e;
      }

      .cls-5 {
        fill: #14463f;
      }

      .cls-6 {
        fill: #beb133;
      }

      .cls-7 {
        fill: #e5edf5;
      }

      .cls-8 {
        fill: #52736e;
      }

      .cls-9 {
        fill: #523631;
      }

      .cls-10 {
        fill: #20515f;
      }

      .cls-11 {
        fill: #639bce;
      }

      .cls-12 {
        fill: #efb71d;
      }

      .cls-13 {
        fill: #24846b;
      }

      .cls-14 {
        fill: #a8cdc8;
      }

      .cls-15 {
        fill: #36a09c;
      }

      .cls-16 {
        fill: #23829c;
      }

      .cls-17 {
        fill: #f4965c;
      }

      .cls-18 {
        fill: #289188;
      }

      .cls-19 {
        fill: #6b9fd1;
      }

      .cls-20 {
        fill: #6aa15a;
      }

      .cls-21 {
        fill: #1a7185;
      }

      .cls-22 {
        fill: #7cabd7;
      }

      .cls-23 {
        fill: #809f9b;
      }

      .cls-24 {
        fill: #fff;
      }

      .cls-25 {
        fill: #1f7067;
      }

      .cls-26 {
        fill: #247d73;
      }

      .cls-27 {
        fill: #bf6d2e;
      }

      .cls-28 {
        fill: #e96227;
      }

      .cls-29 {
        fill: #5a96cc;
      }

      .cls-30 {
        fill: #bf3929;
      }
    </style>
  </defs>
  <path class="cls-24" d="M50,60.58c-16.41,0-32.82,0-49.23.02-.64,0-.76-.14-.76-.76,0-19.69,0-39.38-.01-59.07C0,.13.14,0,.76,0c4.56.03,9.12.02,13.68.02,28.18,0,56.36,0,84.54-.02.86,0,1.02.16,1.02,1.02-.03,19.52-.03,39.05,0,58.57,0,.86-.16,1.02-1.02,1.02-16.33-.03-32.66-.03-48.98-.03Z"/>
  <path class="cls-15" d="M86.05,20.87c.06.72-.03,1.4-.5,1.99-.57.54.12,1.26-.25,1.81.02.17-.36.22-.16.47.03-.14.1-.26.21-.38.18-.35.38-.68.69-.92.3-.26.5-.58.5-.99.04-.74.62-.42.99-.5,1.31-.15.35,1.2.99,1.49-.33.33-.66.66-.99.99-.47.39-.05,1.09-.5,1.49v.99c-.11.64-.52,1.02-1.07,1.3-.53.2-1.07.22-1.61.04-.43-.05-.37-.87-1-.63-.39.03-.66.35-1.04.41-.94-.49-1.93-.91-2.41-1.95,0-.46.19-.85.48-1.2.71-.05.87-.38.48-.97.08-.56.22-1.1.62-1.53.21-.09.43-.11.65-.03.38.29.46.75.65,1.14.18.28.1.61.18.91.05-.31.03-.62-.09-.92-.12-.3-.13-.6-.02-.91.18-.36.45-.68.64-1.04.08-.18.18-.35.29-.52.06-.08.12-.16.17-.24.12-.16.24-.32.36-.48.25-.44.33-.98.74-1.34.2-.1.41-.1.61-.01.28.47-.07,1.1.39,1.52h0Z"/>
  <path class="cls-10" d="M78.09,36.76c-1.91.13-3.03-1.31-4.43-2.19-.07-.91-.8-1.36-1.39-1.83-.69-.55-.65-1.22-.64-1.93.15-1.45,1.15-1.27,2.06-.98.91.29,1.75.77,2.66,1.09.81.48,1.21,1.34,1.82,2.01.13.18.23.38.31.59.17.64.43,1.23.85,1.74.27.5.45,1.02.56,1.57.03.35-.03.67-.31.93h-.99c-.33-.25-.06-.8-.5-.99h0Z"/>
  <path class="cls-16" d="M74.61,23.85c-.17-.13-.47-.26-.48-.39-.03-2.39-.03-4.77,0-7.16,0-.13.31-.26.48-.39.38.18.7.43.85.82.29.75.43,1.52.26,2.32.32-.7.14-1.61.88-2.15.47.55.9,1.16,1.44,1.64.25.23.69.23,1.05.34.2-.18.4-.18.61,0,.08.23.11.46.11.71-.18,1.43.73,2.85.07,4.29-.5.8-1.11,1.4-2.16,1.24-.36-.12-.63-.36-.84-.67-.34-1.77-1.02-2.22-2.26-.59h-.01Z"/>
  <path class="cls-29" d="M35.82,29.81c-.67,1.89-2.28,1.47-3.7,1.48-1.26.01-1.76-.48-1.21-1.56.49-.96.39-1.86.42-2.8.03-.87-.07-1.67-.43-2.54-.5-1.24.2-1.99,1.54-2.03.5-.02,1.02-.1,1.48.02.5.14.94.49,1.4.75-.54.8.9,1.26.31,2.2-.46.74-.78,1.72.18,2.48.53.66.53,1.32,0,1.99h0Z"/>
  <path class="cls-11" d="M62.68,26.83c0,1.07.04,2.15-.02,3.22-.02.42.36,1.1-.38,1.2-.29.04-.78-.3-.95-.6-.92-1.6-2.3-2.95-2.63-4.86-.03-.14-.13-.27-.2-.41-.1.18-.28.36-.28.54-.02,1.65,0,3.31-.03,4.96,0,.14-.29.38-.46.38s-.49-.22-.49-.34c-.03-2.73-.03-5.46,0-8.19,0-.13.2-.37.25-.36.29.08.71.15.82.36.51.94.9,1.94,1.41,2.88.48.88,1.06,1.71,1.6,2.57.13-.11.36-.22.36-.33.02-1.65,0-3.31.04-4.96,0-.18.37-.36.58-.54.13.17.37.33.38.5.03,1.32.02,2.65.02,3.97h-.01Z"/>
  <path class="cls-12" d="M79.59,36.76c-.96-.23-.31-1-.5-1.49-.17-.2-.16-.41-.01-.62.41-.29.86-.31,1.33-.18.69.27,1.31.73,2.03.93.29.09.58.17.87.21.62.05,1.18-.15,1.73-.41,1.05-.65,2.24-1.13,2.94-2.23.15-.17.33-.31.53-.43.42-.19.87-.25,1.32-.24.23,0,.45.04.66.1.21.08.39.21.53.39-.03,2.19-.23,2.49-1.99,2.98-1.51,1.02-2.6,3.1-4.97,1.99-.99.17-1.99.33-2.98.5-.76-.23-1.26-.73-1.49-1.49h0Z"/>
  <path class="cls-20" d="M80.08,26.33c.05.13.09.38.16.39,1.04.16,1.7.85,2.33,1.6.34-.31.68-.25,1.02,0,.56,1.24-.45,1.48-1.2,1.88-.34.11-.69.16-1.05.2-.65.09-1.29.22-1.78.71-.27.35-.26.76-.22,1.18,0,.22-.04.43-.13.63-.3.34-.61.66-1.12.37-.54-.78-.69-1.63-.52-2.53.07-.13.06-.28-.02-.41-.24.05-.46.15-.7.11-.26-.14-.44-.32-.25-.63v-1.49c-.52-1.1-.59-2.14.35-3.07,1.27-.28,2.49-.45,3.13,1.08v-.02Z"/>
  <path class="cls-11" d="M64.67,27.19v.49c.02,2.2.46,2.49,2.6,1.76.21-.07.6-.15.64-.08.14.26.31.65.21.87-.18.4-.49.92-.85,1.03-2.13.64-3.99-.78-4.09-3.05-.03-.82.1-1.66-.03-2.46-.18-1.1,1.47-1.38,1.06-2.56-.02-.07.58-.38.91-.53,1.54-.68,2.78.01,3.01,1.72.02.13-.25.42-.4.43-.2.02-.4-.19-.62-.26-1.75-.56-2.4-.11-2.44,1.65v.99Z"/>
  <path class="cls-19" d="M4.99,27.81c0-.9-.02-1.81,0-2.71.01-.47-.05-.77-.63-.77-.29,0-.79-.11-.83-.26-.1-.47-.07-.98,0-1.46.02-.11.4-.23.61-.23.9-.03,1.81-.02,2.72,0,1.07.01,1.35.39,1.1,1.5-.04.18-.29.48-.38.46-1.19-.23-1.11.53-1.1,1.3.02,1.64,0,3.29.02,4.93,0,.49-.08.75-.65.76-.58,0-.92-.08-.87-.79.06-.9.01-1.81.01-2.71v-.02Z"/>
  <path class="cls-28" d="M90.03,32.78h-1.49c-1.26-1.25-.96-3.37-2.49-4.47.33-.33.66-.66.99-.99.93-.64,2.3-.67,2.78-1.98.03-.08.46-.01.7-.01.17-.19.33-.19.5,0v1.49c.07.09.14.17.21.26,0,.11.02.22.03.34-.02.34-.07.68-.1,1.01-.07.93.02,1.88-.24,2.79-.15.6-.46,1.11-.9,1.55h.01Z"/>
  <path class="cls-29" d="M12.95,29.32c0-1.15-.03-2.3.03-3.45,0-.19.38-.36.58-.53.25.3.49.6.74.89.19-.3.32-.7.59-.86.22-.13.7-.07.9.11,1.23,1.06,1.61,4.18.62,5.47-.52.68-1.3.45-1.92.12-.39-.22-.46-.26-.57.21-.16.68.51,1.98-.59,1.9-.88-.06-.26-1.38-.38-2.12-.09-.56-.02-1.15-.02-1.72l.02-.02Z"/>
  <path class="cls-29" d="M42.86,31.3c-2.33,0-2.38-.23-2.62-2.58-.13-1.31.59-2.11,1.09-3.04.35-.65,1.15-.27,1.76-.28.03.87,1.32.86,1.24,1.94-.06.9-.37,1.87.4,2.8.47.57-.04,1.14-.88,1.16h-.99Z"/>
  <path class="cls-25" d="M76.6,29.81c.17.17.33.33.5.5.25.54.37,1.01-.5.99-.95-.02-1.84.1-2.65-.81-.6-.67-1.68-.83-2.32.31-.08,0-.22.03-.24,0-.68-1.03-1.34-2.46-.53-3.26.82-.81,2.21-.05,3.28.53.9.48,1.35,1.58,2.46,1.74Z"/>
  <path class="cls-11" d="M36.32,27.82c-.25-1.14,1.21-1.43,1.26-2.45,0-.03.76,0,1.17-.04.64-.05.41.56.63.79.81.85.26,1.87.4,2.79.02.11-.29.36-.46.38-.57.05-1.15.01-1.72.04-.02,0-.08.35,0,.47.35.59.93.55,1.5.47.24-.03.51-.94.7,0,.08.39.27,1.04-.57,1.03-.57-.01-1.16.05-1.72-.02-.84-.1-1.27-.6-1.16-1.48-.36-.66-.36-1.32,0-1.99h-.02Z"/>
  <path class="cls-11" d="M20.41,28.32c0-.41-.05-.83,0-1.23.28-1.98.83-2.18,2.53-.97.08.06.34-.04.44-.13.19-.18.31-.59.5-.61.66-.08.5.48.5.84.01,1.48.01,2.96,0,4.45,0,.71-.39.9-.9.45-.35-.31-.46-.03-.72.04-1.67.41-1.92.24-2.35-1.34-.43-.5-.39-.99,0-1.49h0Z"/>
  <path class="cls-26" d="M92.02,26.83c-.15-.8,1.38-.26,1-1.25.56-.23,1.11-.48,1.68-.67,1.02-.35,1.67.15,1.25,1.18-.61,1.49-.63,3.4-2.43,4.22-.4.31-.85.43-1.34.47-1.34-.06-1.26-.77-.96-1.79.22-.74,1.39-1.13.81-2.15h-.01Z"/>
  <path class="cls-19" d="M12.67,28.69c.19,1.31-.7,1.92-1.45,2.54-.25.21-.81.03-.78.65,0,.08-.25.17-.39.25.07-1.1-1.33-.73-1.55-1.54-.18-.67-.5-1.34-.49-2.01,0-.99.91-1.62,1.29-2.43.37-.78.76-.89,1.41-.79.26.04.63.19.72.39.45.96.83,1.96,1.24,2.95h0Z"/>
  <path class="cls-22" d="M52.73,31.3c-1.47-.06-1.48-.06-1.49-1.12,0-.99.05-1.98-.02-2.96-.04-.62-.62-.31-.98-.39-1.12-.18-.88-.81-.5-1.49h.97c1.6.02,1.95.36,2,2.07.04,1.29,0,2.59,0,3.88h.02Z"/>
  <path class="cls-19" d="M20.41,28.32v1.49c-.61.61-.89,1.58-1.95,1.73-.15.02-.23.45-.35.7-.06-.22-.18-.44-.18-.66,0-.59-.24-1.27.79-1.39.35-.04.33-.63-.17-.88-.23-.12-.53-.28-.61-.5-.22-.56-.59-1.24-.43-1.72.14-.42.41-.79.42-1.3.01-.65.56-.41.91-.44.62-.06.58.39.57.8,0,.16,0,.32-.04.47-.25.88.09,1.45,1.04,1.7Z"/>
  <path class="cls-11" d="M47.16,31.3c-1.16.01-1.83-.55-1.88-1.75-.05-1.26-.31-2.62.98-3.52.07-1.41,1.17-.33,1.68-.69.1.52.38,1.07.28,1.55-.21.95-.47-.1-.7-.04-.29.06-.6.16-.84.34-.76.54-.39,1.36-.38,2.04.02.92.71,1.14,1.54,1.11.14,0,.28.29.42.44-.2.18-.38.39-.61.52-.12.07-.32.01-.49.01h0Z"/>
  <path class="cls-11" d="M49.75,25.34c.19.49-.46,1.26.5,1.49-.17.67-.39,1.34-.48,2.02-.08.65,0,1.32-.04,1.97,0,.17-.25.32-.39.48-.2-.18-.56-.36-.56-.55-.04-2.63-.03-5.26-.03-7.89.33-.28.66-.28.99,0v2.48h0Z"/>
  <path class="cls-2" d="M84.06,21.86c.15.81-.18,1.14-.99.99-.09-.08-.17-.17-.26-.25-.18-.31-.27-.66-.31-1.01.06-.9-.64-1.82.07-2.71v-3.47c.33-.31.66-.29.99,0,.19.49-.46,1.26.5,1.49.09.09.18.19.28.28.39.74.37,1.53.24,2.33-.05.65,0,1.33-.52,1.85-.13.11-.17.22-.13.33s.09.17.13.17Z"/>
  <path class="cls-21" d="M74.61,23.85c0-.33-.01-.65,0-.98.04-.9.04-.89,1.16-.6.21.05.49.09.65-.01.31-.2.62-.69.67.14.04.65,0,1.3,0,1.95-.3.81-.75,1.51-1.49,1.99-.74-.04-.42-.62-.5-.99-.45-.4-.02-1.1-.5-1.49h0Z"/>
  <path class="cls-4" d="M92.02,26.83c.24,0,.48-.02.72,0,.22.02.44.09.66.14-.2.12-.48.19-.6.36-.59.87-.81,1.97-1.71,2.64.31.11.61.22.92.33.08.99-.68,1.65-.99,2.48h-.5c-.34-.5-.34-.99,0-1.49v-3.47c.18-.15.33-.33.5-.5.14-.19.33-.34.5-.5h.5,0Z"/>
  <path class="cls-19" d="M26.37,28.32c0,.9.02,1.81-.03,2.71,0,.1-.38.22-.59.25-.11.01-.36-.16-.36-.25-.02-1.81-.03-3.62.01-5.42,0-.09.38-.22.6-.25.11-.01.35.15.36.25.03.9.02,1.81.02,2.71h-.01Z"/>
  <path class="cls-4" d="M79.59,19.38v-.5c.17-.2.33-.2.5,0,.17.17.33.33.5.5.77.32.99,1.01,1.15,1.74.04.2.06.4.05.59,0,.39-.15.76-.21,1.14-.19.49.46,1.26-.5,1.49-1.44-1.37-1.66-3.11-1.49-4.96Z"/>
  <path class="cls-28" d="M84.06,37.75c.25,0,.49.02.74,0,.55-.04,1.53.02,1.58-.17.18-.64.98-.74,1.02-1,.19-1.17,1.02-.73,1.64-.82-.05.3-.12.87-.16.87-1.16-.05-.77,1.74-1.99,1.62-.88-.09-1.77-.06-2.65-.11-.06,0-.11-.26-.17-.4h0Z"/>
  <path class="cls-21" d="M76.6,16.9v.24c.12,1.01-.12,1.91-.83,2.66-.38-.84-.81-1.64-.7-2.64.04-.39-.3-.83-.46-1.25.15-.1.31-.28.45-.27.19.01.36.17.54.27.24.42.57.75.99.99h.01Z"/>
  <path class="cls-29" d="M27.95,27.24c-.09,1.39-.17,2.68-.25,3.97-.72-1.25-.24-2.6-.3-3.9-.07-1.45.08-2.92.14-4.38.81,1.41-.01,2.94.41,4.3h0Z"/>
  <path class="cls-10" d="M75.61,26.33c-.07-1.09.69-1.55,1.49-1.99.17.17.33.33.5.5-.04.29-.33.33-.5.5,0,1.02-.85,1.9-.5,2.98-.65-.5-1.03-1.14-.99-1.99Z"/>
  <path class="cls-12" d="M83.56,15.41h-.99c-.17-.33-.51-.7-.46-1,.1-.65.39-1.28.65-1.89.04-.08.41-.01.63-.01,0,.53.83.82.35,1.53-.23.34-.13.9-.18,1.37Z"/>
  <path class="cls-19" d="M54.22,30.98c0,.25.09.55-.02.73-.22.39-.54.74-.85,1.06-.06.06-.43-.04-.43-.06,0-.47,0-.94.06-1.41.04-.3.12-.61.25-.88.12-.23.34-.41.52-.61.15.22.34.44.45.68.06.14,0,.32,0,.49h0Z"/>
  <path class="cls-26" d="M88.54,23.85c-.66,0-.4-.53-.51-.86-.08-.24-.31-.42-.48-.63.1-1.11.38-1.39,1.49-1.49.3.03.31.35.5.5-.36.81-1.4,1.36-.99,2.48h0Z"/>
  <path class="cls-21" d="M91.02,32.78c-.4-1.12.63-1.67.99-2.48h1.49c-.18.71-.92.77-1.32,1.17-.39.39-.46,1.14-1.17,1.31h.01Z"/>
  <path class="cls-14" d="M84.06,16.9c.06-.31.01-.73.2-.89.34-.28.8-.42,1.23-.6.32-.13.64-.23.97-.35.04.5.5,1.12-.4,1.34-.15.15-.31.29-.48.4-.49.18-.98.44-1.51.09h0Z"/>
  <path class="cls-26" d="M82.57,18.89c0,1.02.85,1.9.5,2.98-.78.26-.91-.44-1.25-.84-.24-.51-.26-1.08-.47-1.59-.02-.22-.02-.44,0-.66.12-.35.31-.58.72-.38.17.17.33.33.5.5h0Z"/>
  <path class="cls-19" d="M25.63,22.72c.28.68.52,1.22.71,1.78.01.03-.47.32-.73.31-.25,0-.71-.3-.7-.34.18-.56.43-1.09.72-1.76h0Z"/>
  <path class="cls-8" d="M86.05,23.85c-.07.38.25.95-.5.99-.17.21-.33.21-.5,0,0-.47-.05-.94.02-1.4.03-.22.31-.39.47-.59.07.38-.25.95.5.99h.01Z"/>
  <path class="cls-23" d="M85.55,19.38h-.5c-.08-.09-.16-.18-.24-.27-.22-.65-.11-1.17.59-1.45.25-.02.46.06.64.23v1.49c-.17.24-.33.24-.5,0h.01Z"/>
  <path class="cls-15" d="M82.07,18.39c-.17.17-.33.33-.5.5-.17.23-.33.23-.5,0v-2.48c.17.11.42.19.48.35.21.53.35,1.09.51,1.64h0Z"/>
  <path class="cls-14" d="M81.08,18.89h.5v.5c.42.53.18,1.14.23,1.71-.08.09-.15.18-.23.27-.17-.11-.42-.19-.48-.35-.21-.53-.35-1.09-.51-1.64.17-.17.33-.33.5-.5h0Z"/>
  <path class="cls-23" d="M80.08,18.89h-.99c0-.16-.01-.33,0-.49.04-.47.1-.93.15-1.4.82.18,0,.98.5,1.31.17.12.24.38.35.58h-.01Z"/>
  <path class="cls-14" d="M81.08,15.2c0,.32.02.64-.01.96,0,.09-.15.16-.23.24-.09-.12-.24-.24-.25-.37-.03-.48-.03-.96,0-1.44.01-.21.13-.42.2-.63.1.25.21.5.28.76.04.15,0,.32,0,.48h.01Z"/>
  <path class="cls-20" d="M79.59,36.76l1.49,1.49c-.49-.19-1.26.46-1.49-.5v-.99Z"/>
  <path class="cls-7" d="M36.32,27.82v1.99h-.5v-1.99h.5Z"/>
  <path class="cls-8" d="M86.55,22.86c.17.21.49.44.47.62-.08.6-.61.31-.97.37.07-.38-.25-.95.5-.99Z"/>
  <path class="cls-4" d="M89.53,21.37c-.17-.17-.33-.33-.5-.5v-.99c.17-.2.33-.2.5,0v1.49Z"/>
  <path class="cls-8" d="M85.55,19.38h.5v1.49c-.96-.23-.31-1-.5-1.49Z"/>
  <path class="cls-23" d="M89.53,19.88h-.5c.1-.19.17-.42.32-.54.17-.13.42-.16.64-.23.05.38.12.77-.46.78h0Z"/>
  <path class="cls-8" d="M86.05,17.89h-.5c-.43-.5-.39-.99,0-1.49h.5v1.49Z"/>
  <path class="cls-16" d="M76.6,16.9c-.81.15-1.15-.18-.99-.99.33.33.66.66.99.99Z"/>
  <path class="cls-16" d="M74.61,23.85c.96.23.31,1,.5,1.49-.96-.23-.31-1-.5-1.49Z"/>
  <path class="cls-4" d="M87.04,26.33c.19-.49-.46-1.26.5-1.49-.19.49.46,1.26-.5,1.49Z"/>
  <path class="cls-16" d="M78.09,36.76c.06-.14.11-.28.17-.42.11.06.31.12.31.19.03.4.01.81.01,1.22-.74-.04-.42-.62-.5-.99h.01Z"/>
  <path class="cls-22" d="M49.75,22.86h-.99c.21-.17.41-.33.62-.5.13.17.25.33.38.5h0Z"/>
  <path class="cls-17" d="M91.02,25.34h-.5c.19-.17.36-.36.57-.48.07-.04.24.11.37.17-.15.1-.29.2-.44.31Z"/>
  <path class="cls-29" d="M44.03,25.34c.06.11.13.22.16.33,0,.04-.1.11-.16.16-.06-.11-.13-.22-.16-.33,0-.04.1-.11.16-.16Z"/>
  <path class="cls-26" d="M91.52,26.83c-.17.17-.33.33-.5.5v-.5h.5Z"/>
  <path class="cls-12" d="M86.05,28.32c1.04-.31,1.62.26,1.86,1.14.29,1.09.43,2.22.63,3.33-.84.26-1.69.31-2.54.09-.3-.32-.38-.7-.32-1.12.01-.17.28-.26.2-.42-.04-.08-.25.03-.34.17-.19.08-.38.11-.59.12-.88-.11-1.69-.41-2.48-.79-.2-.11-.36-.26-.51-.43-.1-.22-.06-.42.11-.59.32-.17.62-.44.95-.47.77-.08.48-.62.54-1.01.08-.07.17-.15.25-.22.08.07.17.15.25.22h1.99v-.02Z"/>
  <path class="cls-24" d="M79.59,19.38c0,1.8.9,3.34,1.49,4.96,0,.08-.03.16,0,.23.11.22.24.43.36.65-.29.04-.58.08-.86.12-.73-.23-.97-.79-.99-1.49-.07-.99.17-1.98-.44-2.94-.18-.28-.52-1.26.44-1.53Z"/>
  <path class="cls-21" d="M79.59,23.85c.33.5.66.99.99,1.49-.07.38.25.95-.5.99-.25,0-.69.05-.71,0-.32-1.36-1.4-.94-2.28-.99.17-.17.33-.33.5-.5.36-.11.73-.17,1.06-.33.34-.17.62-.44.93-.66h.01Z"/>
  <path class="cls-4" d="M85.06,24.84h.5c-.17.42-.28.88-.53,1.24-.19.27-.56.41-.85.6-.02-.39-.17-.83-.02-1.14s.59-.48.9-.71h0Z"/>
  <path class="cls-18" d="M83.07,23.85c.17.2.49.43.47.6-.08.5-.3.98-.47,1.47-.05.14-.14.26-.22.39-.09-.18-.25-.36-.26-.55-.03-.63-.01-1.27-.01-1.91.17-.17.33-.17.5,0h0Z"/>
  <path class="cls-5" d="M83.07,23.85h-.5c-.74-.04-.42-.62-.5-.99-.12-.18-.11-.36.05-.51.52-.21.68.24.94.51v.99h0Z"/>
  <path class="cls-7" d="M84.06,21.37v-1.99c.25-.18.47-.15.67.09.05.64.24,1.29-.17,1.89h-.5Z"/>
  <path class="cls-23" d="M84.56,21.37v-1.99c.17-.17.33-.17.5,0,0,.47.05.94-.02,1.4-.03.22-.31.39-.47.59h-.01Z"/>
  <path class="cls-18" d="M83.56,28.32h-.99c.04-.98.09-1,.99-.5.14.11.19.22.14.33s-.09.17-.14.17Z"/>
  <path class="cls-18" d="M82.07,22.36v.5h-.5c-.17-.21-.33-.41-.5-.62.17-.13.33-.25.5-.38l.18.05c.11.07.2.15.27.26l.04.19h.01Z"/>
  <path class="cls-25" d="M83.56,28.32v-.5c.11-.14.23-.27.34-.41.05.14.13.28.15.42.03.16,0,.32,0,.48h-.5.01Z"/>
  <path class="cls-7" d="M84.06,21.86l-.41-.33c.14-.05.27-.11.41-.16v.5h0Z"/>
  <path class="cls-13" d="M76.6,31.3c.74-.04.42-.62.5-.99.04-.74.62-.42.99-.5v3.47c-.8-.44-1.57-.9-1.49-1.99h0Z"/>
  <path class="cls-13" d="M78.09,33.28c.33-.17.66-.33.99-.5.34.08.56.28.68.61.07.6-.27,1-.68,1.38v.5c-.58.03-1.13.07-1-.81.06-.39,0-.79,0-1.18h.01Z"/>
  <path class="cls-7" d="M32.34,28.9c0-.08-.02-.17,0-.24.17-.44-.46-1.2.51-1.33.81-.1,1.92.84,1.97,1.67.05.77-.38,1.16-1.07,1.3-1.16.24-1.41,0-1.41-1.4Z"/>
  <path class="cls-7" d="M32.34,25.22c0-.08-.02-.17,0-.24.11-.39-.32-1.02.48-1.13.78-.11,1.44.34,1.49,1.13.04.53.22,1.18-.41,1.52-.33.17-.71.3-1.08.32-.66.04-.44-.51-.48-.87-.02-.24,0-.49,0-.73Z"/>
  <path class="cls-30" d="M86.05,32.78c.83-.64,1.66-.64,2.49,0-.17.25-.5.52-.47.75.13,1.08-.36,1.38-1.33,1.24-.49-.07-.67.14-.74.64-.02.16-.61.24-.95.35-.59-.52-.55-1.2-.46-1.89.05-.22.14-.42.26-.61.32-.34.72-.5,1.19-.47h0Z"/>
  <path class="cls-9" d="M85.06,33.28v2.48c-.59.47-1.27.56-1.99.5-.16-.17-.24-.37-.26-.6.23-1.03.8-1.83,1.62-2.48.23-.07.44-.03.63.1Z"/>
  <path class="cls-6" d="M79.09,34.77c.17-.5.33-.99.5-1.49.99-.18,1.24.36,1.2,1.21-.07.09-.14.19-.21.28,0,0-1.49,0-1.49,0Z"/>
  <path class="cls-3" d="M82.57,35.76c-.85.04-1.71.11-1.99-.99.29-.27.64-.39,1.03-.35.54.12.89.44,1.05.98-.03.12-.06.24-.09.37h0Z"/>
  <path class="cls-27" d="M90.53,31.3v1.49h-.5c.19-.49-.46-1.26.5-1.49Z"/>
  <path class="cls-3" d="M83.07,35.76v.5l-.5-.5c.17-.2.33-.2.5,0Z"/>
  <path class="cls-12" d="M81.57,34.77h-.99c.08-.77-.21-1.29-.99-1.49l-.5-.5v-.5c-.34-.5-.34-.99,0-1.49.5-.65,1.14-1.03,1.99-.99.25.33.74.17.99.5.64.63,1.12,1.31.8,2.27-.6.63-.84,1.48-1.3,2.2Z"/>
  <path class="cls-6" d="M79.09,30.8v1.49c-.68-.5-.68-.99,0-1.49Z"/>
  <path class="cls-6" d="M82.07,30.3c-.38-.07-.95.25-.99-.5h.99v.5Z"/>
  <path class="cls-13" d="M78.38,29.35c.06.06.16.14.15.16-.06.11-.14.2-.22.3-.07-.07-.15-.15-.22-.22.1-.08.19-.16.29-.23h0Z"/>
  <path class="cls-26" d="M91.02,27.32c-.17.17-.33.33-.5.5.17-.17.33-.33.5-.5Z"/>
  <path class="cls-24" d="M13.94,28.59c0-.99.36-1.69.91-1.76.64-.07,1.1.71,1.08,1.84v.5c-.03.66-.42,1.15-1.03,1.1-.56-.04-1.02-.48-.96-1.18.01-.16,0-.33,0-.5Z"/>
  <path class="cls-24" d="M41.29,28.59c0-.99.36-1.69.91-1.76.64-.07,1.1.71,1.08,1.84v.5c-.03.66-.42,1.15-1.03,1.1-.56-.04-1.02-.48-.96-1.18,0-.16,0-.33,0-.5Z"/>
  <path class="cls-7" d="M38.22,26.59c.26.32.54.52.56.73.06.65-.49.53-.84.47-.23-.03-.42-.3-.63-.47.26-.21.51-.42.91-.74h0Z"/>
  <path class="cls-7" d="M23.53,28.91c-.22.39-.38.86-.69,1.17-.5.48-1.07.27-1.44-.37-.41-.7-.83-1.29-.09-2.14.29-.33.3-.72.92-.78.84-.07.58.63.81.95.22.3.3.7.49,1.17Z"/>
  <path class="cls-24" d="M11.46,28.69c0,.25.1.58-.02.73-.29.34-.7.84-1.03.82s-.76-.55-.9-.94c-.16-.44-.16-1.02,0-1.46.14-.39.57-.92.9-.94.34-.02.78.46,1.03.82.15.23.03.64.03.97h0Z"/>
  <path class="cls-24" d="M85.06,19.38h-.99v-2.48c.5-.17.99-.33,1.49-.5v1.49c-.96.23-.31,1-.5,1.49Z"/>
  <path class="cls-18" d="M83.07,22.86c-.33-.17-.66-.33-.99-.5-.15-.18-.32-.34-.5-.5v-.5c.19-.15.2-.46.5-.5.17.21.32.43.5.61.14.15.33.25.49.38v1.01Z"/>
  <path class="cls-15" d="M82.07,20.87c-.17.17-.33.33-.5.5v-1.99c.96.23.31,1,.5,1.49Z"/>
  <path class="cls-30" d="M82.57,32.78c-.17-.83-.33-1.65-.5-2.48,1.16.33,2.32.66,3.48.99.16.13.21.29.16.48-.1.26-.16.53-.21.81-.08.27-.24.5-.45.69h-.5c-.84.55-1.46.2-1.99-.5h0Z"/>
  <path class="cls-9" d="M85.55,31.79v-.5c.17-.2.33-.2.5,0v1.49c-.04.74-.62.42-.99.5v-.99c.18-.15.33-.33.5-.5h-.01Z"/>
  <path class="cls-28" d="M86.05,31.3h-.5c.1-.19.17-.42.32-.54.17-.13.42-.16.64-.23.05.38.12.77-.46.78h0Z"/>
  <path class="cls-5" d="M81.57,21.86c.17.17.33.33.5.5-.17-.17-.33-.33-.5-.5Z"/>
  <path class="cls-1" d="M82.57,32.78c.3.05.61.09.91.17.36.09.72.22,1.08.33-.5.83-.99,1.65-1.49,2.48h-.5c-.33-.33-.66-.66-.99-.99,0-.16-.02-.32,0-.47.1-.53-1.01-.82-.35-1.36.29-.24.88-.12,1.34-.16Z"/>
  <path class="cls-12" d="M85.55,31.79c-.17.17-.33.33-.5.5.17-.17.33-.33.5-.5Z"/>
</svg>